<?xml version="1.0" encoding="utf-8"?>
<!-- Generator: Adobe Illustrator 28.0.0, SVG Export Plug-In . SVG Version: 6.00 Build 0)  -->
<svg version="1.1" id="Capa_1" xmlns="http://www.w3.org/2000/svg" xmlns:xlink="http://www.w3.org/1999/xlink" x="0px" y="0px"
	 viewBox="0 0 28 28" style="enable-background:new 0 0 28 28;" xml:space="preserve">
<style type="text/css">
	.st0{fill:#2EC866;}
</style>
<g>
	<path class="st0" d="M0.5,28c-0.2-0.1-0.3-0.3-0.3-0.6c0-1.4,0-2.9,0-4.3c0,0,0-0.1,0-0.1c0.3,0,0.6,0,0.9,0c0,1.4,0,2.7,0,4.1
		c1.4,0,2.7,0,4.1,0c0,0.3,0,0.6,0,0.9C3.7,28,2.1,28,0.5,28z"/>
	<path class="st0" d="M22.7,28c0-0.3,0-0.6,0-0.9c1.4,0,2.7,0,4.1,0c0-1.4,0-2.7,0-4.1c0.3,0,0.6,0,0.9,0c0,0.1,0,0.2,0,0.3
		c0,1.4,0,2.7,0,4.1c0,0.3-0.1,0.5-0.3,0.7C25.9,28,24.3,28,22.7,28z"/>
	<path class="st0" d="M9,10.6C9.3,9.7,9.5,8.9,9.7,8c0.2-0.8,0.7-1.2,1.5-1.2c1.9,0,3.8,0,5.7,0c0.8,0,1.3,0.4,1.5,1.2
		c0.2,0.8,0.4,1.7,0.6,2.5c0.1,0,0.2,0,0.3,0c1.3,0,2.6,0,3.8,0c1.1,0,2,0.6,2.3,1.7c0.1,0.2,0.1,0.5,0.1,0.7c0,3.3,0,6.5,0,9.8
		c0,1.2-0.6,2.1-1.8,2.4c-0.2,0.1-0.5,0.1-0.7,0.1c-6,0-12,0-18,0c-1.2,0-2.1-0.6-2.4-1.7c-0.1-0.2-0.1-0.4-0.1-0.7
		c0-3.3,0-6.6,0-9.8c0-1.2,0.6-2,1.7-2.3c0.2-0.1,0.5-0.1,0.8-0.1c1.2,0,2.5,0,3.7,0C8.8,10.6,8.9,10.6,9,10.6z M14,24.3
		c3,0,6,0,9.1,0c1,0,1.5-0.6,1.5-1.5c0-3.3,0-6.5,0-9.8c0-1-0.6-1.5-1.5-1.5c-1.4,0-2.9,0-4.3,0c-0.4,0-0.5-0.1-0.6-0.5
		c-0.2-0.9-0.4-1.8-0.7-2.7c-0.1-0.4-0.2-0.5-0.6-0.5c-1.9,0-3.8,0-5.6,0c-0.4,0-0.5,0.1-0.6,0.5c-0.2,0.9-0.4,1.8-0.7,2.6
		c-0.1,0.4-0.2,0.5-0.7,0.5c-1.4,0-2.8,0-4.2,0c-0.2,0-0.3,0-0.5,0c-0.7,0.2-1.1,0.7-1.1,1.5c0,3.3,0,6.5,0,9.8
		c0,1.1,0.5,1.6,1.6,1.6C8,24.3,11,24.3,14,24.3z"/>
	<path class="st0" d="M19.5,2.7c0,0.3-0.2,0.4-0.6,0.5c-0.6,0-1,0.3-1.3,0.7c-0.2,0.3-0.3,0.6-0.4,0.9c0,0.1,0,0.1,0,0.2
		c-0.1,0.3-0.2,0.4-0.5,0.4c-0.2,0-0.4-0.2-0.4-0.4c-0.1-0.4-0.2-0.7-0.3-1c-0.3-0.5-0.8-0.7-1.4-0.8c-0.1,0-0.1,0-0.2,0
		C14.1,3.1,14,3,14,2.7c0-0.2,0.2-0.4,0.4-0.5c0.4-0.1,0.7-0.2,1-0.3c0.5-0.3,0.7-0.7,0.8-1.3c0-0.1,0-0.2,0-0.3
		C16.4,0.1,16.5,0,16.8,0c0.2,0,0.4,0.1,0.4,0.3c0,0.2,0,0.3,0.1,0.5c0.2,0.8,0.8,1.4,1.7,1.4C19.3,2.3,19.5,2.5,19.5,2.7z
		 M16.1,2.7c0.2,0.2,0.4,0.4,0.6,0.6c0.2-0.2,0.4-0.4,0.6-0.6c-0.2-0.2-0.4-0.4-0.6-0.6C16.6,2.3,16.3,2.5,16.1,2.7z"/>
	<path class="st0" d="M23.6,6c0,0.3-0.2,0.4-0.6,0.5c-0.4,0-0.7,0.2-1,0.4c-0.4,0.3-0.6,0.7-0.6,1.1c0,0.1,0,0.2,0,0.2
		c0,0.3-0.2,0.4-0.5,0.5c-0.3,0-0.4-0.1-0.5-0.4c0-0.2,0-0.3-0.1-0.5c-0.2-0.7-0.8-1.2-1.6-1.3c-0.1,0-0.1,0-0.2,0
		c-0.3-0.1-0.4-0.2-0.4-0.5c0-0.2,0.2-0.4,0.4-0.4c0.4,0,0.8-0.1,1.2-0.4c0.4-0.3,0.6-0.7,0.7-1.2c0-0.1,0-0.2,0-0.3
		c0.1-0.2,0.2-0.3,0.4-0.3c0.2,0,0.4,0.1,0.4,0.4c0,0.2,0,0.3,0.1,0.5c0.2,0.7,0.8,1.3,1.6,1.4c0.1,0,0.2,0,0.3,0
		C23.5,5.6,23.6,5.7,23.6,6z M21.5,6c-0.2-0.2-0.4-0.4-0.6-0.6c-0.2,0.2-0.4,0.4-0.6,0.6c0.2,0.2,0.4,0.4,0.6,0.6
		C21.1,6.4,21.3,6.2,21.5,6z"/>
	<path class="st0" d="M27.8,3.2c0,0.3-0.2,0.4-0.5,0.5c-0.6,0-1.1,0.3-1.4,0.7c-0.2,0.3-0.4,0.6-0.4,1c0,0.2-0.1,0.4-0.3,0.5
		c-0.3,0.1-0.6-0.1-0.6-0.5c0-0.6-0.3-1.1-0.7-1.4c-0.3-0.2-0.7-0.3-1-0.4c-0.3,0-0.5-0.2-0.5-0.4c0-0.3,0.2-0.5,0.5-0.5
		c1,0,1.7-0.8,1.8-1.8c0-0.3,0.2-0.5,0.5-0.5c0.3,0,0.4,0.2,0.5,0.5c0.1,0.9,0.6,1.5,1.4,1.7c0.2,0,0.3,0,0.5,0.1
		C27.7,2.8,27.7,3,27.8,3.2z M25,2.6c-0.2,0.2-0.4,0.4-0.7,0.6c0.2,0.2,0.5,0.4,0.6,0.6c0.2-0.2,0.4-0.4,0.6-0.6
		C25.4,3,25.2,2.8,25,2.6z"/>
	<path class="st0" d="M1.1,5.5c0,1.4,0,2.7,0,4.1c-0.3,0-0.6,0-0.9,0c0-0.1,0-0.2,0-0.3c0-1.4,0-2.7,0-4.1c0-0.5,0.1-0.7,0.7-0.7
		c1.4,0,2.7,0,4.1,0c0.1,0,0.2,0,0.3,0c0,0.3,0,0.6,0,0.9C3.9,5.5,2.5,5.5,1.1,5.5z"/>
	<path class="st0" d="M8.5,17.9c0.1-3.1,2.5-5.5,5.6-5.5c3,0,5.5,2.4,5.5,5.5c0,3.1-2.6,5.5-5.6,5.5C10.9,23.3,8.5,20.9,8.5,17.9z
		 M14,13.3c-2.5,0-4.6,2-4.6,4.6c0,2.5,2,4.6,4.6,4.6c2.5,0,4.6-2,4.6-4.6C18.6,15.4,16.6,13.3,14,13.3z"/>
	<path class="st0" d="M4.4,14c0-0.4,0-0.7,0-1.1c0-0.3,0.2-0.5,0.5-0.5c0.7,0,1.5,0,2.2,0c0.3,0,0.5,0.2,0.5,0.5c0,0.8,0,1.5,0,2.3
		c0,0.3-0.2,0.5-0.5,0.5c-0.8,0-1.5,0-2.3,0c-0.3,0-0.4-0.2-0.5-0.5C4.4,14.7,4.4,14.4,4.4,14C4.4,14,4.4,14,4.4,14z M6.6,14.7
		c0-0.5,0-0.9,0-1.3c-0.5,0-0.9,0-1.3,0c0,0.5,0,0.9,0,1.3C5.7,14.7,6.2,14.7,6.6,14.7z"/>
	<path class="st0" d="M14,21.6c-2.1,0-3.7-1.7-3.6-3.8c0-2,1.7-3.6,3.7-3.6c2.1,0,3.7,1.7,3.6,3.8C17.6,20,15.9,21.6,14,21.6z
		 M16.7,17.9c0-1.5-1.2-2.8-2.7-2.8c-1.5,0-2.7,1.2-2.8,2.7c0,1.5,1.3,2.8,2.8,2.8C15.5,20.6,16.7,19.4,16.7,17.9z"/>
</g>
</svg>
