<?xml version="1.0" encoding="utf-8"?>
<!-- Generator: Adobe Illustrator 26.0.1, SVG Export Plug-In . SVG Version: 6.00 Build 0)  -->
<svg version="1.1" id="Capa_1" xmlns="http://www.w3.org/2000/svg" xmlns:xlink="http://www.w3.org/1999/xlink" x="0px" y="0px"
	 viewBox="0 0 23 28" style="enable-background:new 0 0 23 28;" xml:space="preserve">
<style type="text/css">
	.st0{fill:#2EC866;}
</style>
<g>
	<path class="st0" d="M15.8,0H4.6c-1.6,0-3,1.3-3,3v11H1.3c-0.7,0-1.2,0.5-1.2,1.2v7.2c0,0.7,0.5,1.2,1.2,1.2h0.3V25
		c0,1.6,1.3,3,3,3h15.4c1.6,0,3-1.3,3-3V7L15.8,0z M5.9,20.6c0.3,0,0.7-0.1,0.9-0.2L7,21.3c-0.2,0.1-0.7,0.2-1.3,0.2
		c-1.7,0-2.6-1.1-2.6-2.5c0-1.7,1.2-2.7,2.7-2.7c0.6,0,1,0.1,1.2,0.2l-0.2,0.9c-0.2-0.1-0.6-0.2-1-0.2c-0.9,0-1.6,0.5-1.6,1.7
		C4.3,20,4.8,20.6,5.9,20.6z M19.9,26.1H4.6c-0.6,0-1.1-0.5-1.1-1.1v-1.3h14.3c0.7,0,1.2-0.5,1.2-1.2v-7.2c0-0.7-0.5-1.2-1.2-1.2
		H3.5V3c0-0.6,0.5-1.1,1.1-1.1h10.5v3.8c0,1.1,0.9,2.1,2.1,2.1H21V25C21,25.6,20.5,26.1,19.9,26.1z M9,19.4
		c-0.8-0.3-1.4-0.8-1.4-1.5c0-0.9,0.7-1.5,1.9-1.5c0.6,0,1,0.1,1.3,0.3l-0.3,0.9c-0.2-0.1-0.6-0.2-1.1-0.2s-0.7,0.2-0.7,0.5
		c0,0.3,0.3,0.5,0.9,0.7c0.9,0.3,1.3,0.8,1.3,1.5c0,0.8-0.6,1.6-2,1.6c-0.6,0-1.1-0.1-1.4-0.3l0.2-0.9C8,20.7,8.5,20.8,9,20.8
		c0.5,0,0.8-0.2,0.8-0.5C9.8,19.8,9.6,19.6,9,19.4z M13,19.4c-0.8-0.3-1.4-0.8-1.4-1.5c0-0.9,0.7-1.5,1.9-1.5c0.6,0,1,0.1,1.3,0.3
		l-0.3,0.9c-0.2-0.1-0.6-0.2-1.1-0.2s-0.7,0.2-0.7,0.5c0,0.3,0.3,0.5,0.9,0.7c0.9,0.3,1.3,0.8,1.3,1.5c0,0.8-0.6,1.6-2,1.6
		c-0.6,0-1.1-0.1-1.4-0.3l0.2-0.9c0.3,0.2,0.8,0.3,1.3,0.3s0.8-0.2,0.8-0.5C13.9,19.8,13.6,19.6,13,19.4z"/>
</g>
</svg>
