<?xml version="1.0" encoding="utf-8"?>
<!-- Generator: Adobe Illustrator 26.0.1, SVG Export Plug-In . SVG Version: 6.00 Build 0)  -->
<svg version="1.1" id="Capa_1" xmlns="http://www.w3.org/2000/svg" xmlns:xlink="http://www.w3.org/1999/xlink" x="0px" y="0px"
	 viewBox="0 0 10 10" style="enable-background:new 0 0 10 10;" xml:space="preserve">
<style type="text/css">
	.st0{fill:#FFFFFF;}
</style>
<path class="st0" d="M7.9,0H2.1C0.9,0,0,0.9,0,2.1v5.9C0,9.1,0.9,10,2.1,10h5.9C9.1,10,10,9.1,10,7.9V2.1C10,0.9,9.1,0,7.9,0z
	 M8.2,8H1.8C1.6,8,1.5,8,1.3,7.9l2.2-2.2c0.1,0,0.1,0.1,0.2,0.1C3.9,5.9,4,6,4.1,6c0.1,0.1,0.2,0.1,0.4,0.2C4.7,6.3,4.8,6.4,5,6.4h0
	h0c0.1,0,0.3,0,0.5-0.1C5.7,6.2,5.8,6.1,5.9,6C6,6,6.1,5.9,6.3,5.8c0,0,0.1-0.1,0.2-0.1l2.2,2.2C8.5,8,8.4,8,8.2,8z M1.2,7.2V3.9
	C1.3,4,1.4,4.1,1.6,4.2c0.6,0.4,1.1,0.8,1.5,1L1.2,7.2z M8.8,7.2l-2-2c0.4-0.3,0.9-0.6,1.5-1C8.6,4.1,8.7,4,8.8,3.9V7.2z M8.7,3.3
	C8.6,3.5,8.4,3.7,8.2,3.9C7.5,4.4,6.9,4.7,6.6,5C6.4,5.1,6.2,5.2,6.1,5.3c0,0,0,0-0.1,0c0,0-0.1,0.1-0.1,0.1
	C5.8,5.5,5.8,5.5,5.7,5.6c-0.1,0-0.1,0.1-0.2,0.1C5.4,5.8,5.3,5.8,5.2,5.8c-0.1,0-0.2,0-0.2,0h0h0c-0.1,0-0.1,0-0.2,0
	c-0.1,0-0.2-0.1-0.3-0.1C4.4,5.7,4.4,5.6,4.3,5.6c-0.1,0-0.1-0.1-0.2-0.2c0,0-0.1-0.1-0.1-0.1c0,0-0.1,0-0.1,0
	C3.8,5.2,3.6,5.1,3.4,5C3.2,4.8,3,4.7,2.7,4.5C2.2,4.1,1.9,3.9,1.8,3.9C1.7,3.7,1.5,3.6,1.3,3.4C1.2,3.1,1.1,2.9,1.1,2.8
	c0-0.2,0.1-0.4,0.2-0.6C1.4,2,1.6,2,1.8,2h6.4C8.4,2,8.6,2,8.7,2.2c0.1,0.1,0.2,0.3,0.2,0.5C8.9,2.9,8.8,3.1,8.7,3.3z"/>
</svg>
