<?xml version="1.0" encoding="utf-8"?>
<!-- Generator: Adobe Illustrator 26.0.1, SVG Export Plug-In . SVG Version: 6.00 Build 0)  -->
<svg version="1.1" id="Capa_1" xmlns="http://www.w3.org/2000/svg" xmlns:xlink="http://www.w3.org/1999/xlink" x="0px" y="0px"
	 viewBox="0 0 10 10" style="enable-background:new 0 0 10 10;" xml:space="preserve">
<style type="text/css">
	.st0{fill-rule:evenodd;clip-rule:evenodd;fill:#FFFFFF;}
</style>
<path class="st0" d="M5,0.1c-2.8,0-5,2.3-5,5c0,2.2,1.4,4.1,3.4,4.8C3.7,10,3.8,9.8,3.8,9.7c0-0.1,0-0.5,0-0.9
	C2.4,9,2.1,8.1,2.1,8.1C1.8,7.5,1.5,7.4,1.5,7.4c-0.5-0.3,0-0.3,0-0.3c0.5,0,0.8,0.5,0.8,0.5C2.8,8.4,3.5,8.2,3.8,8
	c0-0.3,0.2-0.6,0.3-0.7C3,7.2,1.8,6.8,1.8,4.9c0-0.6,0.2-1,0.5-1.4c0-0.1-0.2-0.6,0-1.3c0,0,0.4-0.1,1.4,0.5C4.2,2.6,4.6,2.5,5,2.5
	c0.4,0,0.9,0.1,1.3,0.2c1-0.7,1.4-0.5,1.4-0.5c0.3,0.7,0.1,1.2,0,1.3C8,3.9,8.2,4.3,8.2,4.9c0,1.9-1.2,2.4-2.3,2.5
	c0.2,0.2,0.3,0.5,0.3,0.9c0,0.7,0,1.2,0,1.4c0,0.1,0.1,0.3,0.3,0.2c2-0.7,3.4-2.6,3.4-4.8C10,2.3,7.8,0.1,5,0.1z"/>
</svg>
