<?xml version="1.0" encoding="utf-8"?>
<!-- Generator: Adobe Illustrator 26.0.1, SVG Export Plug-In . SVG Version: 6.00 Build 0)  -->
<svg version="1.1" id="Capa_1" xmlns="http://www.w3.org/2000/svg" xmlns:xlink="http://www.w3.org/1999/xlink" x="0px" y="0px"
	 viewBox="0 0 10 10" style="enable-background:new 0 0 10 10;" xml:space="preserve">
<style type="text/css">
	.st0{fill-rule:evenodd;clip-rule:evenodd;fill:#2EC866;}
</style>
<path class="st0" d="M5.1,0.1c-2.8,0-5,2.3-5,5c0,2.2,1.4,4.1,3.4,4.8C3.8,10,3.9,9.8,3.9,9.7s0-0.5,0-0.9C2.5,9,2.2,8.1,2.2,8.1
	C1.9,7.5,1.6,7.4,1.6,7.4c-0.5-0.3,0-0.3,0-0.3c0.5,0,0.8,0.5,0.8,0.5C2.9,8.4,3.6,8.2,3.9,8c0-0.3,0.2-0.6,0.3-0.7
	C3.1,7.2,1.9,6.8,1.9,4.9c0-0.6,0.2-1,0.5-1.4c0-0.1-0.2-0.6,0-1.3c0,0,0.4-0.1,1.4,0.5c0.5-0.1,0.9-0.2,1.3-0.2S6,2.6,6.4,2.7
	c1-0.7,1.4-0.5,1.4-0.5c0.3,0.7,0.1,1.2,0,1.3c0.3,0.4,0.5,0.8,0.5,1.4c0,1.9-1.2,2.4-2.3,2.5c0.2,0.2,0.3,0.5,0.3,0.9
	c0,0.7,0,1.2,0,1.4c0,0.1,0.1,0.3,0.3,0.2c2-0.7,3.4-2.6,3.4-4.8C10.1,2.3,7.9,0.1,5.1,0.1z"/>
</svg>
