<?xml version="1.0" encoding="utf-8"?>
<!-- Generator: Adobe Illustrator 26.0.1, SVG Export Plug-In . SVG Version: 6.00 Build 0)  -->
<svg version="1.1" id="Capa_1" xmlns="http://www.w3.org/2000/svg" xmlns:xlink="http://www.w3.org/1999/xlink" x="0px" y="0px"
	 viewBox="0 0 28 28" style="enable-background:new 0 0 28 28;" xml:space="preserve">
<style type="text/css">
	.st0{fill:#2EC866;}
</style>
<g>
	<g id="XMLID_617_">
		<g>
			<path class="st0" d="M0,0v28h28V0H0z M25.8,25.8H2.3V2.3h23.5V25.8z"/>
		</g>
	</g>
	<g id="XMLID_548_">
		<g>
			<path class="st0" d="M10.2,16.4l-1,3.4H7L10.7,8h2.7l3.8,11.8h-2.3l-1-3.4H10.2z M13.5,14.7l-0.9-2.9c-0.2-0.7-0.4-1.5-0.6-2.2
				l0,0c-0.2,0.7-0.3,1.5-0.5,2.2l-0.9,2.9C10.6,14.7,13.5,14.7,13.5,14.7z"/>
		</g>
	</g>
	<g id="XMLID_532_">
		<g>
			<path class="st0" d="M20.3,8.8c0,0.7-0.5,1.2-1.2,1.2s-1.2-0.5-1.2-1.2s0.5-1.2,1.2-1.2C19.8,7.6,20.2,8.1,20.3,8.8z M18,19.7
				v-8.6h2.1v8.6H18z"/>
		</g>
	</g>
</g>
</svg>
