<?xml version="1.0" encoding="utf-8"?>
<!-- Generator: Adobe Illustrator 26.0.1, SVG Export Plug-In . SVG Version: 6.00 Build 0)  -->
<svg version="1.1" id="Capa_1" xmlns="http://www.w3.org/2000/svg" xmlns:xlink="http://www.w3.org/1999/xlink" x="0px" y="0px"
	 viewBox="0 0 28 28" style="enable-background:new 0 0 28 28;" xml:space="preserve">
<style type="text/css">
	.st0{fill:#2EC866;}
</style>
<path class="st0" d="M25,0c1.6,0,3,1.4,3,3v22c0,1.7-1.4,3-3,3H3c-1.7,0-3-1.3-3-3V3c0-1.6,1.3-3,3-3H25z M15.2,21.9v-9h-2.6v8.9
	c0,1.3-0.6,1.7-1.4,1.7c-0.9,0-1.3-0.6-1.7-1.4l-2.2,1.3c0.6,1.3,1.9,2.4,3.9,2.4C13.6,25.8,15.2,24.6,15.2,21.9z M21.4,25.8
	c2.5,0,4.4-1.2,4.4-3.6c0-2.2-1.2-3.2-3.5-4.1l-0.7-0.3c-1.1-0.5-1.6-0.8-1.6-1.6c0-0.6,0.5-1.1,1.2-1.1c0.8,0,1.2,0.4,1.8,1.1
	l2-1.3c-0.8-1.5-2.1-2.1-3.7-2.1c-2.4,0-3.9,1.5-3.9,3.4c0,2.2,1.2,3.2,3.1,4l0.7,0.2c1.2,0.6,1.9,0.9,1.9,1.8
	c0,0.8-0.8,1.3-1.8,1.3c-1.3,0-2-0.7-2.6-1.6l-2.2,1.2C17.4,24.7,19,25.8,21.4,25.8z"/>
</svg>
