<?xml version="1.0" encoding="utf-8"?>
<!-- Generator: Adobe Illustrator 26.0.1, SVG Export Plug-In . SVG Version: 6.00 Build 0)  -->
<svg version="1.1" xmlns="http://www.w3.org/2000/svg" xmlns:xlink="http://www.w3.org/1999/xlink" x="0px" y="0px"
	 viewBox="0 0 30 30" style="enable-background:new 0 0 30 30;" xml:space="preserve">
<style type="text/css">
	.st0{fill-rule:evenodd;clip-rule:evenodd;fill:#FFFFFF;}
</style>
<g id="Bg">
</g>
<g id="Layer_1_12_">
	<path class="st0" d="M29.99,6.83c-0.02-0.67-0.08-1.53-0.16-1.92c-0.12-0.6-0.3-1.16-0.54-1.63c-0.28-0.55-0.64-1.05-1.07-1.47
		c-0.43-0.43-0.92-0.79-1.48-1.07c-0.47-0.24-1.03-0.42-1.62-0.54c-0.4-0.08-1.26-0.13-1.94-0.16c-0.28-0.01-0.63-0.01-0.8-0.01
		l-14.77,0c-0.16,0-0.52,0.01-0.8,0.01C6.16,0.05,5.3,0.1,4.9,0.18c-0.6,0.12-1.16,0.3-1.63,0.54C2.72,1,2.22,1.36,1.8,1.79
		C1.37,2.22,1.01,2.71,0.73,3.26C0.49,3.73,0.3,4.29,0.18,4.89C0.1,5.28,0.05,6.15,0.02,6.83C0.01,7.1,0.01,7.46,0.01,7.62l0,14.77
		c0,0.16,0,0.52,0.01,0.8c0.02,0.67,0.08,1.53,0.16,1.92c0.12,0.6,0.3,1.16,0.54,1.63C1,27.3,1.36,27.79,1.79,28.22
		c0.43,0.43,0.92,0.79,1.48,1.07c0.47,0.24,1.03,0.42,1.62,0.54c0.4,0.08,1.26,0.13,1.94,0.16c0.28,0.01,0.63,0.01,0.8,0.01l14.77,0
		c0.16,0,0.52,0,0.8-0.01c0.67-0.02,1.53-0.08,1.92-0.16c0.6-0.12,1.16-0.3,1.63-0.54c0.55-0.28,1.05-0.64,1.47-1.07
		c0.43-0.43,0.79-0.92,1.07-1.48c0.24-0.47,0.42-1.03,0.54-1.62c0.08-0.4,0.13-1.26,0.16-1.94C30,22.92,30,22.56,30,22.4l0-14.77
		C30.01,7.46,30,7.1,29.99,6.83z M9.98,24.04H6.27V12.03h3.71V24.04z M8.12,10.23c-1.18,0-2.13-0.95-2.13-2.13
		c0-1.18,0.95-2.13,2.13-2.13c1.18,0,2.13,0.95,2.13,2.13C10.25,9.28,9.3,10.23,8.12,10.23z M24.02,24.04h-3.64l0.01-6.54
		c0-2.74-2.89-2.69-3.89-1.79c-0.8,0.72-0.82,1.81-0.82,1.88v6.45h-3.62V12.03h3.41v1.75c0.77-1.12,2.28-1.9,3.64-1.96
		c0.69-0.03,1.18,0.01,1.84,0.21c0.58,0.18,1.13,0.53,1.6,0.91c0.48,0.39,0.76,0.91,1.01,1.46c0.27,0.58,0.46,1.24,0.46,1.88
		C24.02,16.29,24.02,24.04,24.02,24.04z"/>
</g>
</svg>
