<?xml version="1.0" encoding="utf-8"?>
<!-- Generator: Adobe Illustrator 26.0.1, SVG Export Plug-In . SVG Version: 6.00 Build 0)  -->
<svg version="1.1" id="Capa_1" xmlns="http://www.w3.org/2000/svg" xmlns:xlink="http://www.w3.org/1999/xlink" x="0px" y="0px"
	 viewBox="0 0 28 28" style="enable-background:new 0 0 28 28;" xml:space="preserve">
<style type="text/css">
	.st0{fill:#0D2A3E;}
	.st1{fill-rule:evenodd;clip-rule:evenodd;fill:#0D2A3E;}
</style>
<g>
	<path class="st0" d="M12.1,14c0,0,1,0.3,1.9,2c0,0,1.1-1.6,1.9-2.1l-0.2,3.2c0,0-1.4,1-1.6,1.3c0,0-1.3-1.1-1.7-1.3L12.1,14z"/>
	<path class="st0" d="M11.2,14.3l0.8,0.4c0,0,0.2,2.6,0,2.8c0,0,1.8,0.8,1.8,1c0,0-2-0.9-2.4-0.9C11.4,17.6,11.6,15.1,11.2,14.3"/>
	<path class="st0" d="M16.7,14.3L16,14.7c0,0-0.2,2.6,0,2.8c0,0-1.8,0.8-1.8,1c0,0,2-0.9,2.4-0.9C16.5,17.6,16.3,15.1,16.7,14.3"/>
	<path class="st0" d="M10.6,15.1h0.6c0,0,0.2,2.1-0.1,2.6c0,0,2.5,0.6,2.6,1c0,0-1.8-0.7-3.1-0.5C10.5,18.2,11.2,16,10.6,15.1
		L10.6,15.1z"/>
	<path class="st0" d="M17.4,15.1h-0.6c0,0-0.2,2.1,0.1,2.6c0,0-2.5,0.6-2.6,1c0,0,1.8-0.7,3.1-0.5C17.5,18.2,16.8,16,17.4,15.1
		L17.4,15.1z"/>
	<path class="st1" d="M14.1,11.3c2.7,0,4.8,2.1,4.8,4.8c0,2.7-2.1,4.8-4.8,4.8c-2.7,0-4.8-2.1-4.8-4.8C9.3,13.4,11.4,11.3,14.1,11.3
		 M14.1,10.8c2.9,0,5.3,2.4,5.3,5.3c0,2.9-2.4,5.3-5.3,5.3c-2.9,0-5.3-2.4-5.3-5.3C8.8,13.2,11.1,10.8,14.1,10.8"/>
	<path class="st1" d="M15,9h0.2v1.2c0,0.1,0,0.1-0.1,0.1c0,0-0.1,0-0.1-0.1V9z"/>
	<path class="st1" d="M12.8,9H13v1.2c0,0.1,0,0.1-0.1,0.1c0,0-0.1,0-0.1-0.1V9z"/>
	<path class="st0" d="M9.3,8.9l0.2-0.1l-0.7-1L8.6,7.9L9,8.5L8.4,8L8.1,8.2l0.7,1L9,9.1L8.5,8.3L9.3,8.9z M7.5,8.4l0,0.2l0.1-0.1
		l0.1-0.3L7.5,8.4z M7.9,9.6c0,0,0.1,0.1,0.1,0.1c0.1,0,0.1,0,0.2,0c0.1,0,0.1-0.1,0.2-0.1c0.1-0.1,0.1-0.1,0.1-0.2
		c0-0.1,0-0.1,0-0.2c0-0.1,0-0.1-0.1-0.2L8.1,8.6c0,0-0.1-0.1-0.1-0.1s-0.1,0-0.2,0c-0.1,0-0.1,0.1-0.2,0.1C7.5,8.7,7.5,8.7,7.5,8.8
		c0,0.1,0,0.1,0,0.2c0,0.1,0,0.1,0.1,0.2L7.9,9.6z M7.7,8.9C7.7,8.9,7.6,8.8,7.7,8.9c0-0.1,0-0.1,0-0.2c0,0,0.1,0,0.1,0
		c0,0,0.1,0,0.1,0l0.4,0.5c0,0,0,0.1,0,0.1c0,0,0,0.1-0.1,0.1c0,0-0.1,0-0.1,0c0,0-0.1,0-0.1,0L7.7,8.9z M7.8,10.1L8,9.9L7.1,9.1
		L6.9,9.3L7.8,10.1z M7.2,10.1l0.1,0.1c0,0,0,0,0,0.1c0,0,0,0,0,0.1c0,0,0,0,0,0.1c0,0,0,0-0.1,0c0,0,0,0-0.1,0c0,0,0,0-0.1,0
		L6.7,10c0,0,0-0.1,0-0.1c0,0,0-0.1,0-0.1c0,0,0.1,0,0.1-0.1c0,0,0.1,0,0.1,0l0.1,0.1l0.2-0.2L7,9.6c0,0-0.1-0.1-0.2-0.1
		c-0.1,0-0.1,0-0.2,0c-0.1,0-0.1,0.1-0.2,0.1C6.5,9.8,6.4,9.8,6.4,9.9c0,0.1,0,0.1,0,0.2c0,0.1,0,0.1,0.1,0.1L7,10.6
		c0,0,0.1,0.1,0.2,0.1c0.1,0,0.1,0,0.2,0c0.1,0,0.1-0.1,0.2-0.1c0.1-0.1,0.1-0.1,0.1-0.2c0-0.1,0-0.1,0-0.2c0-0.1,0-0.1-0.1-0.1
		L7.4,9.9L7.2,10.1z M5.7,10.8l0.7,0.5c0.1,0,0.1,0.1,0.2,0.1c0.1,0,0.1,0,0.2,0c0.1,0,0.1-0.1,0.2-0.1C6.9,11.2,7,11.1,7,11
		c0-0.1,0-0.1,0-0.2c0,0-0.1-0.1-0.1-0.1l-0.7-0.5L6,10.4L6.7,11c0,0,0,0,0,0.1c0,0,0,0,0,0.1c0,0,0,0,0,0.1c0,0,0,0-0.1,0
		c0,0,0,0-0.1,0c0,0,0,0-0.1,0l-0.8-0.5L5.7,10.8z M5.3,11.8l0.1-0.2l0.9,0.5l0.1-0.2l-0.9-0.5l0.1-0.2L5.6,11l-0.4,0.7L5.3,11.8z
		 M6.1,12.6l0.1-0.2l-1.1-0.5L5,12.1L6.1,12.6z M4.8,13.1l0.1-0.2l1,0.4L6,13l-1-0.4l0.1-0.2L5,12.3L4.7,13L4.8,13.1z M4.7,14
		c0,0,0.1,0,0.1,0c0,0,0.1,0,0.1,0c0,0,0.1,0,0.1-0.1c0,0,0.1-0.1,0.1-0.1c0,0,0.1-0.1,0.1-0.1c0,0,0.1,0,0.1,0c0,0,0.1,0,0.1,0
		c0,0,0,0,0.1,0c0,0,0,0,0,0.1c0,0,0,0,0,0.1c0,0,0,0,0,0.1c0,0,0,0,0,0c0,0,0,0-0.1,0l-0.1,0l-0.1,0.2l0.1,0c0.1,0,0.1,0,0.2,0
		c0.1,0,0.1,0,0.1-0.1c0,0,0.1-0.1,0.1-0.2c0-0.1,0-0.2,0-0.2c0-0.1,0-0.1-0.1-0.2c0,0-0.1-0.1-0.1-0.1c0,0-0.1,0-0.1,0
		c0,0-0.1,0-0.1,0c0,0-0.1,0-0.1,0.1c0,0-0.1,0.1-0.1,0.1c0,0-0.1,0.1-0.1,0.1c0,0-0.1,0-0.1,0c0,0-0.1,0-0.1,0c0,0-0.1,0-0.1-0.1
		c0,0,0-0.1,0-0.1c0,0,0-0.1,0.1-0.1c0,0,0.1,0,0.1,0l0,0l0.1-0.2l0,0c-0.1,0-0.1,0-0.2,0c-0.1,0-0.1,0-0.1,0.1c0,0-0.1,0.1-0.1,0.2
		c0,0.1,0,0.1,0,0.2c0,0.1,0,0.1,0.1,0.1C4.6,14,4.6,14,4.7,14 M5.5,14.7l0-0.3l-1.2-0.2l0,0.2L5,14.6l-0.8,0.2l0,0.3l1.2,0.2l0-0.2
		l-0.9-0.1L5.5,14.7z M5.4,15.7l0-0.3l-1.2-0.1l0,0.3L5.4,15.7z"/>
	<path class="st0" d="M23.7,16.7l-0.6,0.1l0-0.2L23.7,16.7z M23.9,16.9l0-0.4l-1.2-0.3l0,0.2l0.2,0.1l0,0.3l-0.2,0l0,0.3L23.9,16.9z
		 M22.7,15.8l0,0.3l1.2,0l0-0.3L22.7,15.8z M23.7,15.2c0,0,0,0.1,0,0.1c0,0,0,0-0.1,0l-0.1,0c0,0-0.1,0-0.1,0c0,0,0,0,0,0
		c0,0,0,0,0-0.1l0-0.1l0.4,0L23.7,15.2z M22.7,15.7C22.7,15.6,22.8,15.6,22.7,15.7c0.1,0,0.1,0,0.1,0l0.2,0c0,0,0.1,0,0.1,0
		c0,0,0.1,0,0.1-0.1c0,0,0-0.1,0-0.1c0,0.1,0.1,0.1,0.1,0.1c0,0,0.1,0,0.2,0l0.1,0c0.1,0,0.1,0,0.2-0.1c0,0,0.1-0.1,0.1-0.1
		c0-0.1,0-0.1,0-0.2l0-0.4l-1.2,0.1l0,0.3l0.5,0l0,0.1c0,0,0,0.1,0,0.1c0,0,0,0,0,0.1c0,0-0.1,0-0.1,0l-0.2,0c0,0,0,0-0.1,0
		c0,0,0,0,0,0c0,0,0,0,0,0c0,0,0,0,0,0L22.7,15.7z M23.5,14.1l-0.6,0.3l-0.1-0.2L23.5,14.1z M23.8,14.2l-0.1-0.4l-1.2,0l0.1,0.2
		l0.2,0l0.1,0.3l-0.2,0.1l0.1,0.3L23.8,14.2z M23.2,12.8l0.1,0.3l-1,0.3l0.1,0.2l1-0.3l0.1,0.3l0.2-0.1l-0.3-0.7L23.2,12.8z
		 M22.1,12.8l0.1,0.2l1.1-0.5l-0.1-0.2L22.1,12.8z M22.5,11.6c0,0-0.1,0-0.1,0.1c0,0,0,0.1-0.1,0.1c0,0,0,0.1,0,0.1c0,0,0,0.1,0,0.1
		c0,0,0,0.1,0,0.1c0,0,0,0.1,0,0.1c0,0,0,0-0.1,0.1c0,0,0,0-0.1,0c0,0,0,0-0.1,0c0,0,0,0,0-0.1c0,0,0,0,0-0.1c0,0,0,0,0-0.1
		c0,0,0,0,0.1,0l0.1,0L22,11.9l-0.1,0c-0.1,0-0.1,0.1-0.1,0.1c0,0,0,0.1,0,0.2c0,0.1,0,0.1,0.1,0.2c0,0.1,0.1,0.1,0.1,0.2
		c0,0,0.1,0.1,0.1,0.1c0.1,0,0.1,0,0.2,0c0,0,0.1,0,0.1-0.1c0,0,0-0.1,0.1-0.1c0,0,0-0.1,0-0.1c0,0,0-0.1,0-0.1c0,0,0-0.1,0-0.1
		c0,0,0-0.1,0-0.1c0,0,0,0,0.1-0.1c0,0,0.1,0,0.1,0c0,0,0,0,0.1,0.1c0,0,0,0.1,0,0.1c0,0,0,0.1-0.1,0.1l0,0l0.1,0.2l0,0
		c0.1,0,0.1-0.1,0.1-0.1c0,0,0-0.1,0-0.2c0-0.1,0-0.1-0.1-0.2c0-0.1-0.1-0.1-0.1-0.2c0,0-0.1-0.1-0.1-0.1
		C22.7,11.6,22.6,11.6,22.5,11.6 M22.3,11C22.3,11,22.3,11.1,22.3,11c0,0.1,0,0.2,0,0.2l-0.1,0.1c0,0-0.1,0-0.1,0c0,0,0,0-0.1,0
		c0,0,0,0-0.1-0.1l-0.1-0.1l0.3-0.2L22.3,11z M21.7,11.9C21.7,11.9,21.7,11.9,21.7,11.9c0.1-0.1,0.1-0.1,0.1-0.1l0.2-0.1
		c0,0,0.1,0,0.1-0.1c0,0,0-0.1,0-0.1c0,0,0-0.1,0-0.1c0,0,0.1,0.1,0.1,0.1c0,0,0.1,0,0.2,0l0.1-0.1c0.1,0,0.1-0.1,0.1-0.1
		c0,0,0-0.1,0-0.2c0-0.1,0-0.1-0.1-0.2l-0.2-0.3l-1,0.7l0.1,0.2l0.4-0.3l0,0.1c0,0,0,0.1,0,0.1c0,0,0,0.1,0,0.1c0,0,0,0-0.1,0.1
		l-0.2,0.1c0,0,0,0,0,0c0,0,0,0,0,0c0,0,0,0,0,0c0,0,0,0,0,0L21.7,11.9z M21.7,10.1l0.3,0.3l0.1-0.1l-0.4-0.5l-0.9,0.8l0.4,0.5
		l0.1-0.1L21,10.7l0.3-0.2l0.2,0.3l0.1-0.1l-0.2-0.3L21.7,10.1z M21.1,9.2L20.9,9l-0.7,1l0.3,0.3l1-0.7l-0.2-0.2L20.5,10L21.1,9.2z
		 M19.8,9.6L20,9.7l0.8-0.9l-0.2-0.2L19.8,9.6z M19.4,9.3l0.2,0.2l0.7-1l-0.2-0.1L19.7,9L20,8.2L19.7,8L19,9l0.2,0.1l0.5-0.7
		L19.4,9.3z M18.8,7.4l-0.4,0.8c0,0.1,0,0.1,0,0.2c0,0.1,0,0.1,0.1,0.2c0,0,0.1,0.1,0.2,0.1c0.1,0,0.1,0.1,0.2,0.1
		c0.1,0,0.1,0,0.2,0c0,0,0.1-0.1,0.1-0.1l0.4-0.8l-0.2-0.1l-0.5,0.8c0,0,0,0,0,0.1c0,0,0,0-0.1,0c0,0,0,0-0.1,0c0,0,0,0-0.1,0
		c0,0,0,0,0-0.1c0,0,0,0,0-0.1L19,7.6L18.8,7.4z"/>
	<path class="st0" d="M18.3,24.7c0,0.1,0.1,0.1,0.1,0.1c0,0,0.1,0,0.2,0c0.1,0,0.1,0,0.2-0.1c0.1,0,0.1-0.1,0.2-0.1
		c0,0,0.1-0.1,0.1-0.2c0-0.1,0-0.1,0-0.2l-0.3-0.5c0-0.1-0.1-0.1-0.1-0.1c0,0-0.1,0-0.2,0c-0.1,0-0.1,0-0.2,0.1
		c-0.1,0-0.1,0.1-0.2,0.1c0,0.1-0.1,0.1-0.1,0.2c0,0.1,0,0.1,0,0.2L18.3,24.7z M18.2,24.1C18.2,24,18.2,24,18.2,24.1
		c0-0.1,0-0.1,0.1-0.2c0,0,0.1,0,0.1,0c0,0,0.1,0,0.1,0.1l0.3,0.6c0,0,0,0.1,0,0.1c0,0,0,0.1-0.1,0.1c0,0-0.1,0-0.1,0
		c0,0-0.1,0-0.1-0.1L18.2,24.1z M17.3,24.2L17,24.3l0.7,1l0.3-0.2l-0.3-1.2L17.6,24l0.2,1L17.3,24.2z M16.8,24.6l0.3,0.5l-0.2,0.1
		L16.8,24.6z M16.9,24.3l-0.3,0.1l0.2,1.2l0.2-0.1l0-0.2l0.3-0.1l0.1,0.2l0.2-0.1L16.9,24.3z M16,24.7c0,0,0.1,0,0.1,0
		c0,0,0,0,0.1,0.1l0,0.1c0,0,0,0.1,0,0.1c0,0,0,0,0,0.1c0,0,0,0-0.1,0l-0.1,0l-0.1-0.4L16,24.7z M16.6,25.7
		C16.6,25.6,16.6,25.6,16.6,25.7c0-0.1-0.1-0.1-0.1-0.1l0-0.2c0,0,0-0.1,0-0.1c0,0,0-0.1-0.1-0.1c0,0-0.1,0-0.1,0
		c0.1,0,0.1-0.1,0.1-0.1c0,0,0-0.1,0-0.2l0-0.1c0-0.1,0-0.1-0.1-0.1c0,0-0.1-0.1-0.1-0.1c-0.1,0-0.1,0-0.2,0l-0.4,0.1l0.3,1.2
		l0.2-0.1L16,25.3l0.1,0c0,0,0.1,0,0.1,0c0,0,0,0,0.1,0c0,0,0,0,0,0.1l0,0.2c0,0,0,0,0,0.1c0,0,0,0,0,0c0,0,0,0,0,0c0,0,0,0,0,0
		L16.6,25.7z M15.2,24.9c0,0,0.1,0,0.1,0c0,0,0,0,0,0.1l0,0.1c0,0,0,0.1,0,0.1c0,0,0,0,0,0c0,0,0,0-0.1,0l-0.1,0l0-0.3L15.2,24.9z
		 M15.2,25.4C15.3,25.4,15.3,25.4,15.2,25.4c0.1,0,0.1,0,0.2,0c0,0,0,0,0,0.1l0,0.1c0,0,0,0.1,0,0.1c0,0,0,0,0,0c0,0,0,0-0.1,0
		l-0.1,0l0-0.4L15.2,25.4z M15.2,24.7l-0.4,0l0.1,1.2l0.4,0c0.1,0,0.2-0.1,0.3-0.1c0.1-0.1,0.1-0.1,0.1-0.2l0-0.1
		c0-0.1,0-0.1-0.1-0.2s-0.1-0.1-0.2-0.1c0.1,0,0.1-0.1,0.1-0.1c0,0,0-0.1,0-0.2l0,0c0-0.1,0-0.1-0.1-0.1c0,0-0.1-0.1-0.1-0.1
		C15.3,24.7,15.3,24.7,15.2,24.7 M13.8,26l0.7,0l0-0.2l-0.4,0l0-1l-0.3,0L13.8,26z M13.3,24.9l0.1,0.6l-0.2,0L13.3,24.9z M13.5,24.8
		l-0.4,0l-0.4,1.2l0.2,0l0.1-0.2l0.3,0l0,0.2l0.3,0L13.5,24.8z M12.2,24.6L12,25.5c0,0.1,0,0.1,0,0.2c0,0,0.1,0.1,0.1,0.1
		c0.1,0,0.1,0.1,0.2,0.1c0.1,0,0.2,0,0.2,0c0.1,0,0.1,0,0.1-0.1c0,0,0.1-0.1,0.1-0.2l0.2-0.9l-0.2,0l-0.2,0.9c0,0,0,0,0,0.1
		c0,0,0,0-0.1,0c0,0,0,0-0.1,0c0,0,0,0-0.1,0c0,0,0,0,0,0c0,0,0,0,0-0.1l0.2-0.9L12.2,24.6z M11.7,25.2l0,0.2c0,0,0,0,0,0.1
		c0,0,0,0-0.1,0c0,0,0,0-0.1,0c0,0,0,0-0.1,0c0,0,0,0,0,0c0,0,0,0,0-0.1l0.2-0.6c0,0,0-0.1,0.1-0.1c0,0,0.1,0,0.1,0
		c0,0,0.1,0,0.1,0.1c0,0,0,0.1,0,0.1l0,0.1L12,25l0-0.1c0-0.1,0-0.1,0-0.2c0-0.1,0-0.1-0.1-0.1c0,0-0.1-0.1-0.2-0.1
		c-0.1,0-0.2,0-0.2,0c-0.1,0-0.1,0-0.2,0.1c0,0-0.1,0.1-0.1,0.1l-0.2,0.6c0,0.1,0,0.1,0,0.2c0,0.1,0,0.1,0.1,0.1
		c0,0,0.1,0.1,0.2,0.1c0.1,0,0.2,0,0.2,0c0.1,0,0.1,0,0.2-0.1c0,0,0.1-0.1,0.1-0.1l0-0.2L11.7,25.2z M10.6,24.4c0,0,0,0.1,0,0.1
		c0,0,0,0.1,0,0.1c0,0,0,0.1,0.1,0.1c0,0,0,0.1,0.1,0.1c0,0,0,0.1,0.1,0.1c0,0,0,0.1,0,0.1c0,0,0,0.1,0,0.1c0,0,0,0,0,0.1
		c0,0,0,0-0.1,0c0,0,0,0-0.1,0c0,0,0,0-0.1,0c0,0,0,0,0-0.1c0,0,0,0,0-0.1l0-0.1l-0.2-0.1l0,0.1c0,0.1,0,0.1,0,0.2
		c0,0.1,0,0.1,0.1,0.1c0,0,0.1,0.1,0.2,0.1c0.1,0,0.1,0,0.2,0c0.1,0,0.1,0,0.2,0c0,0,0.1-0.1,0.1-0.1c0,0,0-0.1,0-0.1
		c0,0,0-0.1,0-0.1c0,0,0-0.1-0.1-0.1c0,0,0-0.1-0.1-0.1c0,0,0-0.1-0.1-0.1c0,0,0-0.1,0-0.1c0,0,0-0.1,0-0.1c0,0,0-0.1,0.1-0.1
		c0,0,0.1,0,0.1,0c0,0,0.1,0,0.1,0.1c0,0,0,0.1,0,0.1l0,0l0.2,0.1l0,0c0-0.1,0-0.1,0-0.2c0-0.1,0-0.1-0.1-0.1c0,0-0.1-0.1-0.2-0.1
		c-0.1,0-0.1,0-0.2,0c-0.1,0-0.1,0-0.2,0C10.7,24.3,10.6,24.3,10.6,24.4 M10.2,24.1L10,24.7l-0.2-0.1L10.2,24.1z M10.5,24l-0.3-0.2
		l-0.8,1l0.2,0.1l0.1-0.2l0.3,0.1l-0.1,0.2l0.2,0.1L10.5,24z M9.6,23.7C9.6,23.7,9.6,23.7,9.6,23.7C9.6,23.8,9.6,23.8,9.6,23.7
		c0.1,0.1,0.1,0.1,0,0.2L9.5,24c0,0,0,0,0,0.1c0,0,0,0-0.1,0c0,0,0,0-0.1,0L9.2,24l0.2-0.4L9.6,23.7z M9.6,23.6l-0.3-0.2l-0.6,1
		l0.2,0.1l0.2-0.4l0.1,0.1c0.1,0.1,0.2,0.1,0.3,0.1c0.1,0,0.1-0.1,0.2-0.1L9.8,24c0-0.1,0.1-0.2,0-0.2C9.8,23.7,9.8,23.6,9.6,23.6"
		/>
	<path class="st1" d="M8.3,23.3c-1.7-1.3-3-3.2-3.5-5.3h0.3c0.5,2,1.6,3.7,3.2,4.9V23.3z M23.3,17.9c-0.6,2.4-2.1,4.4-4.1,5.8v-0.4
		c1.8-1.3,3.2-3.2,3.8-5.4H23.3z"/>
	<path class="st0" d="M8.3,23.3c-1.7-1.3-3-3.2-3.5-5.3h0.3c0.5,2,1.6,3.7,3.2,4.9V23.3z M23.3,17.9c-0.6,2.4-2.1,4.4-4.1,5.8v-0.4
		c1.8-1.3,3.2-3.2,3.8-5.4H23.3z"/>
	<path class="st0" d="M15.2,26.7C15.2,26.7,15.2,26.7,15.2,26.7c-0.1,0-0.1,0-0.1,0c0,0,0,0,0,0c0,0,0,0,0,0.1v0.1c0,0,0,0.1,0,0.1
		c0,0,0,0,0,0c0,0,0,0,0.1,0c0,0,0,0,0.1,0c0,0,0,0,0,0c0,0,0,0,0-0.1v-0.1C15.2,26.8,15.2,26.8,15.2,26.7
		C15.2,26.7,15.2,26.7,15.2,26.7"/>
	<path class="st0" d="M17.5,4.8c0.5-1.6,0.2-1.6,0.2-1.6c-0.1,0.1-1,0.4-1,0.4c0.2-0.8-0.4-2-0.4-2c-0.2,0.5-1.2,0.6-1.2,0.6
		C14.7,1.1,14,0,14,0c-1.6,1-1.6,2.3-1.6,2.3c-0.5,0.1-1-0.5-1-0.5C10.9,2.5,11.3,4,11.3,4c-0.4-0.3-1.2-0.2-1.2-0.2
		C10,4.2,10,4.6,10.1,4.9C-2.3,9.3,0.7,28,14,28C27.5,28,30.3,8.8,17.5,4.8 M10.9,4.5c0,0,1,0.2,1,0.4c0,0-0.5-1.5,0-1.9
		c0,0,0.5,1,1,0.8c0,0-0.5-2.5,1.1-3c0,0-0.1,0.6,0.4,1.2c0,0,0.8,0.6,0.4,1.6c0,0,0.4-0.1,0.6-0.5c0,0,0.3-0.6,0.7-0.5
		c0,0,0.4,1.4-0.1,2.3c0,0,1.2-0.6,1.2-0.8c0,0,0.2,0.5-0.4,1.1c0,0-0.5,0.6-0.4,0.8h-5C11.3,6,10.6,5.3,10.9,4.5 M14,21.3
		c-2.8,0-5.1-2.3-5.1-5.1c0-2.8,2.3-5.1,5.1-5.1c2.8,0,5.1,2.3,5.1,5.1C19.1,19,16.8,21.3,14,21.3 M14.8,21.3l-0.1,1.3
		c-0.2,0-0.3,0-0.4,0l0-1.3C14.4,21.3,14.6,21.3,14.8,21.3 M13.8,22.6c-0.1,0-0.2,0-0.3,0l-0.1-1.3c0.1,0,0.3,0,0.4,0L13.8,22.6z
		 M15.2,10.2V9.1h0.6c0.5,0,0.2,1.1,0.2,1.1l-0.1,1.2c-0.5-0.2-1-0.3-1.6-0.3l0-1.9H15v1.1C15.2,10.4,15.2,10.2,15.2,10.2 M11.8,8.2
		c-0.2,0-0.4-0.1-0.4-0.3c0-0.2,0.2-0.3,0.4-0.3h4.3c0.2,0,0.4,0.1,0.4,0.3c0,0.2-0.2,0.3-0.4,0.3H11.8z M13.7,11
		c-0.5,0-1.1,0.1-1.6,0.3L12,10.2c0,0-0.2-1.1,0.3-1.1h1.3L13.7,11z M11.6,10.3c0.1,0.3,0.1,0.8,0.2,1.2c-1.7,0.8-2.9,2.6-2.9,4.7
		c0,2.4,1.7,4.5,4,5c0,0.4,0.1,0.9,0.1,1.3c-3-0.5-5.2-3.1-5.2-6.3C7.7,13.6,9.3,11.3,11.6,10.3 M15.3,21.2c2.2-0.6,3.9-2.6,3.9-5
		c0-2-1.1-3.7-2.8-4.6c0.1-0.5,0.1-0.9,0.1-1.3c2.3,1,3.9,3.2,3.9,5.9c0,3.1-2.3,5.8-5.3,6.3C15.2,22.1,15.3,21.6,15.3,21.2
		 M16.4,7.2l-4.8,0c0,0-0.6-0.5,0-0.7h4.7C16.3,6.4,16.9,6.4,16.4,7.2 M13.1,27.8h-0.2v-0.9h-0.2v-0.1c0,0,0.1,0,0.1,0
		c0,0,0,0,0.1,0c0,0,0,0,0,0c0,0,0,0,0-0.1h0.1V27.8z M13.9,27.5c0,0.1,0,0.2-0.1,0.2c-0.1,0.1-0.1,0.1-0.2,0.1c-0.1,0-0.1,0-0.2,0
		c0,0-0.1-0.1-0.1-0.1c0,0,0-0.1,0-0.2v0h0.2v0c0,0,0,0.1,0,0.1c0,0,0,0,0.1,0c0,0,0,0,0.1,0c0,0,0,0,0,0c0,0,0-0.1,0-0.1v-0.2
		c0,0,0,0.1-0.1,0.1c0,0-0.1,0-0.1,0c-0.1,0-0.1,0-0.2-0.1c0,0-0.1-0.1-0.1-0.2v-0.2c0-0.1,0-0.1,0-0.2c0,0,0.1-0.1,0.1-0.1
		c0,0,0.1,0,0.2,0c0.1,0,0.1,0,0.2,0c0,0,0.1,0.1,0.1,0.1c0,0,0,0.1,0,0.2V27.5z M14.7,26.9c0,0.1,0,0.1,0,0.2c0,0-0.1,0.1-0.1,0.1
		c0.1,0,0.1,0.1,0.1,0.1c0,0,0,0.1,0,0.2v0.1c0,0.1,0,0.1,0,0.2c0,0-0.1,0.1-0.1,0.1c0,0-0.1,0-0.2,0c-0.1,0-0.1,0-0.2,0
		c0,0-0.1-0.1-0.1-0.1c0,0,0-0.1,0-0.2v-0.1h0.2v0.1c0,0,0,0.1,0,0.1c0,0,0,0,0.1,0c0,0,0,0,0.1,0c0,0,0,0,0,0c0,0,0,0,0-0.1v-0.1
		c0,0,0-0.1,0-0.1c0,0,0,0,0,0c0,0,0,0-0.1,0h-0.1V27h0.1c0,0,0,0,0.1,0c0,0,0,0,0,0c0,0,0,0,0-0.1v-0.1c0,0,0-0.1,0-0.1
		c0,0,0,0,0,0c0,0,0,0-0.1,0c0,0-0.1,0-0.1,0c0,0,0,0.1,0,0.1v0.1h-0.2v-0.1c0-0.1,0-0.1,0-0.2c0,0,0.1-0.1,0.1-0.1c0,0,0.1,0,0.2,0
		c0.1,0,0.1,0,0.2,0c0,0,0.1,0.1,0.1,0.1C14.7,26.7,14.7,26.8,14.7,26.9L14.7,26.9z M15.5,26.9c0,0.1,0,0.1,0,0.2
		c0,0-0.1,0.1-0.1,0.1c0,0,0.1,0.1,0.1,0.1c0,0,0,0.1,0,0.2v0.1c0,0.1,0,0.1,0,0.2c0,0-0.1,0.1-0.1,0.1c0,0-0.1,0-0.2,0
		s-0.1,0-0.2,0c0,0-0.1-0.1-0.1-0.1c0,0,0-0.1,0-0.2v-0.1c0-0.1,0-0.1,0-0.2c0,0,0.1-0.1,0.1-0.1c0,0-0.1-0.1-0.1-0.1
		c0,0,0-0.1,0-0.2v0c0-0.1,0-0.1,0-0.2c0,0,0.1-0.1,0.1-0.1c0,0,0.1,0,0.2,0s0.1,0,0.2,0c0,0,0.1,0.1,0.1,0.1
		C15.4,26.7,15.5,26.8,15.5,26.9L15.5,26.9z M14,26.3c-11.6,0-14-16.6-3-20c0.1,0.1,0.1,0.1,0.1,0.1c-0.5,0.3,0,0.9,0,0.9
		c-0.4,0.3-0.1,0.8-0.1,0.8c-0.8,0,0.2,1,0.2,1c0,0,0.1,0.1,0.1,0.2c-0.1,0-0.1,0-0.2,0.1c-0.3,0-0.6-0.5-0.6-0.5L9.3,9.6
		c0.2,0.4,0.2,0.6,0.1,0.8c-0.5,0.4-0.9,0.8-1.3,1.3c-0.3,0.1-0.7-0.2-0.7-0.2l-0.8,1.3c0.3,0.2,0.4,0.4,0.5,0.6
		c-0.2,0.6-0.4,1.2-0.5,1.8C6.5,15.5,6,15.4,6,15.4L6,17c0.4,0,0.6,0.2,0.7,0.3c0.1,0.6,0.2,1.2,0.5,1.8c0,0.3-0.5,0.6-0.5,0.6
		l0.8,1.3c0.4-0.2,0.6-0.2,0.7-0.1c0.4,0.5,0.8,0.9,1.3,1.3c0.1,0.3-0.2,0.7-0.2,0.7l1.3,0.8c0.2-0.3,0.4-0.5,0.6-0.5
		c0.6,0.2,1.2,0.4,1.8,0.5c0.2,0.2,0.2,0.7,0.2,0.7l0.6,0l0.9,0c0-0.4,0.1-0.6,0.2-0.7c0.6-0.1,1.2-0.2,1.8-0.5
		c0.3,0,0.6,0.5,0.6,0.5l1.3-0.8c-0.2-0.4-0.2-0.6-0.1-0.8c0.5-0.4,0.9-0.8,1.3-1.3c0.3-0.1,0.7,0.2,0.7,0.2l0.8-1.3
		c-0.3-0.2-0.4-0.4-0.5-0.6c0.2-0.6,0.4-1.2,0.5-1.9c0.2-0.2,0.7-0.2,0.7-0.2l0-1.5c-0.4,0-0.6-0.1-0.7-0.2
		c-0.1-0.6-0.3-1.3-0.5-1.9c0.1-0.3,0.5-0.5,0.5-0.5l-0.8-1.3c-0.4,0.2-0.6,0.2-0.7,0.1c-0.4-0.5-0.8-0.9-1.3-1.3
		c-0.1-0.3,0.2-0.7,0.2-0.7l-1.3-0.8c-0.3,0.3-0.5,0.5-0.6,0.5c-0.1,0-0.1-0.1-0.2-0.1c0-0.1,0-0.1,0-0.1c0.8-0.9,0.2-1,0.2-1
		c0.4-0.8-0.1-0.8-0.1-0.8c0.6-0.6,0.1-0.9,0.1-0.9c0,0,0-0.1,0-0.1C28.1,9.7,25.7,26.3,14,26.3"/>
	<path class="st0" d="M13.7,26.7C13.6,26.7,13.6,26.7,13.7,26.7c-0.1,0-0.1,0-0.1,0c0,0,0,0,0,0c0,0,0,0,0,0.1V27c0,0,0,0.1,0,0.1
		c0,0,0,0,0.1,0c0,0,0.1,0,0.1,0c0,0,0-0.1,0-0.1v-0.2C13.7,26.8,13.7,26.8,13.7,26.7C13.7,26.7,13.7,26.7,13.7,26.7"/>
	<path class="st0" d="M15.1,27.2C15.1,27.2,15.1,27.2,15.1,27.2C15,27.3,15,27.3,15,27.4v0.1c0,0,0,0.1,0,0.1c0,0,0,0,0,0
		c0,0,0,0,0.1,0c0,0,0,0,0.1,0c0,0,0,0,0,0c0,0,0,0,0-0.1v-0.1C15.2,27.3,15.2,27.3,15.1,27.2C15.2,27.2,15.2,27.2,15.1,27.2"/>
</g>
</svg>
