<?xml version="1.0" encoding="utf-8"?>
<!-- Generator: Adobe Illustrator 26.0.1, SVG Export Plug-In . SVG Version: 6.00 Build 0)  -->
<svg version="1.1" id="Capa_1" xmlns="http://www.w3.org/2000/svg" xmlns:xlink="http://www.w3.org/1999/xlink" x="0px" y="0px"
	 viewBox="0 0 28 28" style="enable-background:new 0 0 28 28;" xml:space="preserve">
<style type="text/css">
	.st0{fill:#2EC866;}
</style>
<g id="XMLID_716_">
	<g>
		<path class="st0" d="M0,0v28h28V0H0z M25.8,25.8H2.3V2.3h23.5V25.8z"/>
	</g>
</g>
<g id="XMLID_704_">
	<g>
		<g>
			<path class="st0" d="M7.4,8c0.8-0.1,1.8-0.2,3.2-0.2c1.5,0,2.7,0.3,3.4,1c0.7,0.6,1.1,1.5,1.1,2.6s-0.3,2.1-1,2.7
				c-0.8,0.9-2.2,1.3-3.7,1.3c-0.4,0-0.8,0-1-0.1v4.5h-2C7.4,19.8,7.4,8,7.4,8z M9.5,13.5c0.3,0.1,0.6,0.1,1,0.1
				c1.6,0,2.5-0.8,2.5-2.2c0-1.3-0.9-2-2.4-2c-0.6,0-1,0.1-1.2,0.1L9.5,13.5L9.5,13.5z"/>
		</g>
	</g>
</g>
<g id="XMLID_695_">
	<g>
		<g>
			<path class="st0" d="M15.8,17.7c0.5,0.3,1.4,0.6,2.1,0.6c0.9,0,1.3-0.4,1.3-0.9c0-0.6-0.3-0.9-1.4-1.2c-1.6-0.6-2.3-1.5-2.3-2.5
				c0-1.5,1.2-2.7,3.2-2.7c0.9,0,1.7,0.2,2.2,0.5L20.6,13c-0.4-0.2-1-0.5-1.8-0.5s-1.2,0.4-1.2,0.9s0.4,0.8,1.5,1.2
				c1.5,0.6,2.2,1.4,2.2,2.6c0,1.5-1.2,2.7-3.4,2.7c-1,0-1.9-0.3-2.5-0.6L15.8,17.7z"/>
		</g>
	</g>
</g>
</svg>
