<?xml version="1.0" encoding="utf-8"?>
<!-- Generator: Adobe Illustrator 28.0.0, SVG Export Plug-In . SVG Version: 6.00 Build 0)  -->
<svg version="1.1" id="Capa_1" xmlns="http://www.w3.org/2000/svg" xmlns:xlink="http://www.w3.org/1999/xlink" x="0px" y="0px"
	 viewBox="0 0 28 28" style="enable-background:new 0 0 28 28;" xml:space="preserve">
<style type="text/css">
	.st0{fill:#2EC866;}
</style>
<g>
	<path class="st0" d="M5,23.8c-0.6,0-1.1,0-1.7-0.1c-1.9-0.3-3.3-1.9-3.3-3.8c0-2.3,0-4.6,0-6.9c0-1,0-2.1,0-3.1
		c0-2.5,1.8-4.3,4.3-4.3c2,0,3.9,0,5.9,0c0.1,0,0.2,0,0.4,0c-0.1-0.1-0.2-0.2-0.3-0.3c-1-1-1.9-1.9-2.9-2.9C6.8,1.7,6.9,0.8,7.6,0.2
		c0.6-0.4,1.3-0.3,1.8,0.2c1.4,1.4,2.9,2.9,4.3,4.3c0.1,0.1,0.2,0.2,0.3,0.3c0.1-0.1,0.2-0.2,0.3-0.3c1.4-1.4,2.9-2.9,4.3-4.3
		C19,0,19.5-0.1,20,0.1c0.6,0.2,0.9,0.6,1,1.2c0.1,0.5-0.1,0.8-0.5,1.2c-1,0.9-1.9,1.9-2.9,2.9c-0.1,0.1-0.2,0.2-0.3,0.3
		c0.2,0,0.3,0,0.4,0c2,0,3.9,0,5.9,0c2.5,0,4.3,1.7,4.3,4.3c0,3.2,0,6.5,0,9.7c0,2.5-1.8,4.2-4.3,4.3c-0.2,0-0.5,0-0.8,0
		c0,0.2,0.1,0.3,0.1,0.4c0.2,0.6,0.4,1.3,0.6,1.9c0.3,1-0.5,2-1.4,1.9c-0.6-0.1-0.9-0.4-1.1-0.9c-0.4-1-0.7-2-1-3
		c-0.1-0.2-0.2-0.3-0.4-0.3c-3.8,0-7.6,0-11.5,0c-0.2,0-0.3,0.1-0.4,0.3c-0.3,0.9-0.6,1.8-1,2.8c-0.3,0.8-1,1.2-1.8,1.2
		c-0.7-0.1-1.2-1-0.9-1.8c0.2-0.6,0.4-1.1,0.6-1.7C4.9,24.3,4.9,24.1,5,23.8z M14,8.4c-3.2,0-6.4,0-9.6,0c-0.2,0-0.4,0-0.6,0
		c-0.7,0.2-1,0.7-1,1.5c0,3.2,0,6.4,0,9.6c0,0,0,0.1,0,0.1c0,0.9,0.5,1.4,1.4,1.4c0.1,0,0.2,0,0.3,0c5.9,0,11.7,0,17.6,0
		c0.5,0,1.1,0,1.6,0c0.9,0,1.4-0.5,1.4-1.4c0-3.3,0-6.5,0-9.8c0-0.7-0.4-1.2-1-1.4c-0.2,0-0.4,0-0.6,0C20.4,8.4,17.2,8.4,14,8.4z"/>
	<path class="st0" d="M11.2,14.7c0-0.6,0-1.3,0-1.9c-0.1-1.4,1.4-1.9,2.4-1.4c0.8,0.4,1.6,0.9,2.3,1.3c0.5,0.3,1.1,0.6,1.6,0.9
		c1,0.6,1,1.7,0,2.3c-1.3,0.8-2.6,1.5-3.9,2.2c-0.6,0.4-1.2,0.3-1.8-0.1c-0.4-0.3-0.6-0.6-0.6-1.1C11.2,16.1,11.2,15.4,11.2,14.7z"
		/>
</g>
</svg>
