<?xml version="1.0" encoding="utf-8"?>
<!-- Generator: Adobe Illustrator 28.0.0, SVG Export Plug-In . SVG Version: 6.00 Build 0)  -->
<svg version="1.1" id="Capa_1" xmlns="http://www.w3.org/2000/svg" xmlns:xlink="http://www.w3.org/1999/xlink" x="0px" y="0px"
	 viewBox="0 0 28 28" style="enable-background:new 0 0 28 28;" xml:space="preserve">
<style type="text/css">
	.st0{fill:#2EC866;}
</style>
<g>
	<path class="st0" d="M11,5.3c0-0.4-0.1-0.7-0.1-1c0-1.3,0.8-2.2,2-2.3c0.5,0,0.9,0,1.4,0.1c0.5,0.1,0.9,0.4,1,0.9
		c0.1,0.5,0.2,1.1,0.2,1.6c0,0.6-0.1,1.2-0.2,1.9c0.2,0.1,0.5,0.1,0.8,0.2c0.4,0.1,0.9,0.1,1.2,0.6c0,0,0.1,0,0.2,0.1
		c0.7,0.2,1.3,0.5,1.8,0.9c0.8,0.6,1,1.1,0.5,2.1c-0.1,0.1-0.1,0.2-0.2,0.4c0.6,0.1,1.1,0.3,1.6,0.3c1.3,0.1,2.5,0.2,3.8,0.4
		c0.3,0,0.6,0.1,0.9,0.2c0.4,0.1,0.5,0.4,0.4,0.8c0,0.1,0,0.3,0,0.4c0,0.2-0.1,0.4-0.3,0.5c-0.4,0.1-0.6,0.3-0.8,0.6
		c-0.1,0.3-0.3,0.4-0.6,0.2c-0.1,0-0.1-0.1-0.2-0.1c-0.6,0.1-1.2,0.2-1.9,0.4c-0.2,0-0.3,0.1-0.5,0.2c-0.1,0.1-0.2,0.2-0.2,0.3
		c-0.1,0.3-0.3,0.4-0.6,0.2c-0.1,0-0.1-0.1-0.2-0.1c-0.6,0-0.9-0.4-1.1-0.9c-0.1-0.1-0.1-0.3-0.1-0.5c-0.1,0-0.3,0-0.5,0
		c-1.1,0-2.2,0.1-3.3,0.1c-0.3,0-0.6-0.2-0.8-0.3c-0.1,0-0.2-0.1-0.3,0c-0.4,0.1-0.8,0.3-1.2,0.5c0,0,0,0.1,0,0.1
		c0.1,0.3,0,0.5-0.3,0.6c-0.5,0.2-1,0.3-1.5,0.5c-0.1,0-0.2,0.1-0.3,0.1c0.2,0.5,0.4,1,0.6,1.5c0.1,0.4,0.2,0.9,0.2,1.3
		c0.1,0.7,0.3,1.3,0.4,2c0.3,1.7-0.7,2.9-2.4,3c-0.8,0.1-1.7,0-2.5-0.1c-0.6,0-1.2,0-1.7,0c-0.3,0-0.5,0.1-0.7,0.3
		c-0.2,0.3-0.4,0.6-0.5,0.9c-0.2,0.4-0.4,0.8-0.7,1.2c-0.2,0.3-0.5,0.5-0.8,0.6C3.5,26.1,3.2,26,3,25.7c-0.1-0.1-0.1-0.1-0.2-0.1
		c-0.3-0.1-0.3-0.4-0.1-0.6c0.2-0.2,0.2-0.5,0-0.7c-0.2-0.2-0.1-0.4,0.1-0.6c0.1,0,0.1-0.1,0.2-0.1c0.2-0.6,0.4-1.2,0.6-1.8
		c0.1-0.4,0.2-0.8-0.1-1.2c-0.1-0.2,0-0.4,0.3-0.5c0.1,0,0.2-0.1,0.3-0.1c0.5-0.3,1.2-0.4,1.7,0c0.2,0.1,0.4,0.1,0.6,0.1
		c1.1,0,2.1-0.5,3.1-0.7c-0.1-0.3-0.2-0.6-0.3-0.9c0,0-0.1,0-0.1,0c-0.3,0.2-0.6,0.1-0.6-0.3c-0.1-0.5-0.2-1.1-0.3-1.6
		c-0.2-0.6-0.4-1.2-0.6-1.8c-0.3-0.9-0.4-1.8-0.1-2.7c0-0.1,0-0.2,0-0.2c-0.3-0.7-0.1-1.3,0.5-1.7c0.1-0.1,0.2-0.2,0.2-0.3
		C8,9.6,8.2,9.2,8.3,8.8C7.6,8.9,6.9,8.7,6.2,9c-0.9,0.4-1.8,0.7-2.7,1.1c-0.1,0.1-0.2,0.2-0.3,0.3c-0.2,0.4-0.5,0.7-0.9,0.9
		c-0.3,0.1-0.7,0.2-1.1,0.3c-0.3,0.1-0.5,0-0.7-0.3C0.2,10.9,0,10.3,0,9.7C0,9.3,0.2,9,0.5,8.8C0.7,8.7,0.8,8.6,1,8.6
		c0.8-0.2,1.5-0.7,2.1-1.1c0.8-0.5,1.6-0.9,2.5-0.9c0.1,0,0.1,0,0.2,0c0.7-0.5,1.5-0.6,2.3-0.8C9,5.4,10,5.3,11,5.3z M13.4,10.8
		c-0.1,0-0.2,0-0.2,0c-1.7,0.1-3.3,0.4-4.9,1c-0.2,0.1-0.3,0.2-0.4,0.4c-0.4,0.8-0.3,1.6,0,2.5c0.3,0.8,0.5,1.6,0.7,2.4
		c0.1,0.2,0.1,0.4,0.1,0.7c0.9-0.6,2-0.8,3.1-0.9c-0.2-0.5-0.4-0.9-0.6-1.4c-0.2,0.1-0.3,0.1-0.5,0.2c-0.6,0.1-1.1,0.3-1.7,0.4
		c-0.2,0-0.4-0.1-0.4-0.3c0-0.2,0.1-0.4,0.4-0.4c0.2,0,0.3,0,0.5,0c1.2-0.4,2.5-0.9,3.7-1.3C13,12.4,13,11.9,13.4,10.8z M13.7,8.9
		c-0.2,0-0.3,0.1-0.4,0.1c-0.6,0.1-1,0-1.4-0.5c-0.4-0.5-0.7-1.1-0.8-1.7c0-0.2,0-0.5,0-0.7C9.5,5.9,8,6.4,6.5,6.9
		c0.1,0.4,0.3,0.7,0.4,1.1C6.9,8.1,7,8.1,7.2,8.1c0.7,0,1.3-0.1,2-0.1c0.3,0,0.5,0.1,0.5,0.3c0,0.3-0.2,0.4-0.4,0.4
		C9.1,8.7,9,8.8,9,9c-0.1,0.4-0.2,0.8-0.4,1.3C8.5,10.5,8.3,10.8,8,11c-0.1,0.1-0.2,0.2-0.3,0.3c0,0,0,0,0.1,0.1
		c1.6-0.7,3.3-1,5-1.2c0.1,0,0.2,0,0.2-0.1C13.2,9.7,13.4,9.3,13.7,8.9z M21.7,11.8c-0.5-0.1-1-0.2-1.5-0.3
		c-1.1-0.3-2.1-0.5-3.2-0.8c-0.3-0.1-0.5,0-0.7,0.1c-0.4,0.3-0.7,0.7-0.8,1.2c-0.1,0.4,0.1,0.8,0.5,0.9c0.3,0.1,0.7,0.1,1.1,0.1
		c0.7,0,1.4,0,2.1-0.1c0.7-0.1,1.3-0.2,2-0.4C21.6,12.4,21.8,12.1,21.7,11.8z M10.8,22.3c0-0.6,0-1.1-0.3-1.5
		c-0.3-0.5-0.6-0.8-1.3-0.6c-0.2,0.1-0.3,0.1-0.5,0.2c-0.7,0.2-1.4,0.4-2.2,0.5C6.1,20.9,6,20.9,6,21.5c0,0.2,0.1,0.4,0.1,0.6
		c0,0.2,0.1,0.2,0.3,0.2c1,0,1.9,0.1,2.9,0.1C9.8,22.3,10.3,22.3,10.8,22.3z M6.2,8.3C6.1,8,6,7.7,5.9,7.4c0-0.1-0.1-0.2-0.3-0.2
		C5.3,7.3,5,7.3,4.7,7.4C4.3,7.6,3.9,7.8,3.5,8C2.8,8.5,2.1,9,1.2,9.2c-0.5,0.2-0.6,0.4-0.5,0.9c0,0.1,0,0.2,0.1,0.2
		C1,10.9,1,11,1.6,10.8c0.5-0.1,0.9-0.4,1.1-0.9C2.8,9.7,3,9.6,3.2,9.5C3.8,9.2,4.5,9,5.1,8.7C5.5,8.6,5.8,8.4,6.2,8.3z M12,17.6
		c-0.8,0-1.5,0.1-2.2,0.5c-0.1,0-0.1,0.2-0.1,0.3c0,0.5,0.3,0.9,0.7,1.2c0.7,0.4,1,1.1,1.1,1.9c0,0.2,0.1,0.4,0.1,0.7
		c0.8-0.3,1.1-0.9,1-1.8C12.4,19.4,12.2,18.5,12,17.6z M20.8,13.4c0.1,0.8,0.3,0.9,0.9,0.6c0.5-0.2,1-0.4,1.5-0.5
		c0.5-0.1,0.9-0.2,1.4-0.3c0.5-0.2,0.9-0.5,1.2-1.1c-1.1-0.1-2.2-0.2-3.3-0.2C22.2,12.8,22,13,20.8,13.4z M12.3,4.7
		c-0.1,0.4-0.1,0.7-0.1,1c0,0.4,0.1,0.7,0.4,0.8c0.2,0.1,0.5,0.3,0.7,0.3c0.8,0.2,1.2,0,1.4-0.8c0.1-0.5,0.1-1,0.2-1.5
		c0-0.1,0-0.2,0-0.3c-0.2,0-0.4-0.1-0.6-0.1c-0.5-0.1-0.7-0.1-0.9,0.4c0,0,0,0.1-0.1,0.1c-0.1,0.4-0.4,0.4-0.7,0.2
		C12.6,4.8,12.5,4.8,12.3,4.7z M3.6,25.3c0.2-0.2,0.4-0.3,0.5-0.4c0.2-0.2,0.3-0.4,0.4-0.7c0.3-0.5,0.6-1,0.9-1.6
		c0-0.1,0.1-0.2,0-0.2c-0.2-0.5-0.2-1-0.1-1.5c0-0.1,0-0.1,0-0.2c-0.1-0.2-0.5-0.3-0.8-0.2c-0.3,0.1-0.3,0.2-0.3,0.5
		c0,0.7-0.1,1.3-0.3,1.9c-0.1,0.4-0.2,0.7-0.3,1.1C3.4,24.4,3.4,24.8,3.6,25.3z M17.2,8.4c0.4,0.1,0.8,0.2,1.2,0.2
		c0.2,0,0.4,0.2,0.3,0.4c0,0.2-0.2,0.3-0.4,0.3c-0.2,0-0.4,0-0.6-0.1c-0.7-0.1-1.3-0.4-2-0.2c-0.5,0.1-0.6,0.2-0.5,0.7
		c0,0.1,0,0.1,0,0.2c1.3-0.2,2.6,0.2,3.9,0.6c0.1-0.3,0.2-0.5,0.3-0.8c0.1-0.2,0.1-0.4-0.1-0.5c-0.6-0.6-1.3-0.9-2.1-1.1
		C17.3,8.1,17.2,8.2,17.2,8.4z M14.8,3.6c-0.1-0.4-0.2-0.8-0.6-0.8c-0.4,0-0.8-0.1-1.2-0.1c-1,0.1-1.6,0.8-1.4,1.8
		c0.3-0.5,0.7-0.6,1.2-0.4C13.3,3.3,14,3.3,14.8,3.6z M15.5,10.5c-0.3,0.1-0.7,0.1-1,0.2c-0.1,0-0.2,0.1-0.2,0.1
		c-0.5,0.7-0.5,1.5-0.4,2.3c0.4-0.2,0.7-0.3,1.1-0.4C14.7,11.9,15,11.2,15.5,10.5z M14.2,8.7c0.2,0,0.4,0,0.5-0.1
		c0.2-0.1,0.4-0.2,0.7-0.3c0.3-0.1,0.6,0,0.9-0.1c0.1,0,0.2-0.1,0.3-0.2c0.1-0.1,0.1-0.3,0.2-0.5c-0.5-0.1-1-0.2-1.4-0.3
		c-0.2-0.1-0.5,0.1-0.6,0.4C14.5,7.9,14.3,8.2,14.2,8.7z M13.8,7.7c-0.4-0.1-0.7-0.2-1.1-0.3c-0.3-0.1-0.6-0.3-0.9-0.5
		c0,0,0,0-0.1,0c0.2,0.3,0.3,0.6,0.5,1c0.2,0.3,0.4,0.5,0.7,0.4C13.4,8.2,13.7,8.1,13.8,7.7z M13.8,10.2c0.3-0.1,0.5-0.1,0.7-0.2
		c0-0.1,0-0.2,0-0.3c0-0.1,0-0.2,0-0.3C14.2,9.4,14.1,9.4,13.8,10.2z"/>
	<path class="st0" d="M25.2,10.4c-1.6,0-2.8-1.3-2.8-2.8c0-1.5,1.3-2.8,2.8-2.8C26.7,4.8,28,6,28,7.6C28,9.1,26.7,10.4,25.2,10.4z
		 M26.5,9.2c-0.1-0.1-0.3-0.2-0.3-0.3c0-0.6,0.1-1.1,0.8-1.4c0,0,0.1,0,0.1-0.1c0.2-0.1,0.2-0.2,0.1-0.3c-0.2-0.8-0.9-1.4-1.7-1.6
		c-0.8-0.2-1.7,0.2-2.1,0.9c-0.5,0.7-0.5,1.6,0,2.3c0.1,0.1,0.2,0.2,0.3,0.1c0.5-0.2,0.9-0.1,1.3,0.2c0,0,0,0,0.1,0
		c0.2,0.1,0.3,0.2,0.2,0.5C25.8,9.7,26.2,9.5,26.5,9.2z"/>
	<path class="st0" d="M25.7,7.3c0,0-0.1,0.1-0.2,0.2c-0.3,0.1-0.6,0.3-0.9,0.4c-0.1,0-0.2,0-0.3-0.1c-0.2-0.3-0.6-0.5-0.6-0.8
		c0-0.3,0.3-0.6,0.5-0.9C24.3,6,24.4,6,24.5,6c0.2,0,0.4,0.1,0.6,0.1c0.5,0.1,0.5,0.1,0.5,0.6c0,0.1,0,0.2,0,0.3
		C25.7,7.1,25.7,7.2,25.7,7.3z"/>
</g>
</svg>
