<?xml version="1.0" encoding="utf-8"?>
<!-- Generator: Adobe Illustrator 28.0.0, SVG Export Plug-In . SVG Version: 6.00 Build 0)  -->
<svg version="1.1" id="Capa_1" xmlns="http://www.w3.org/2000/svg" xmlns:xlink="http://www.w3.org/1999/xlink" x="0px" y="0px"
	 viewBox="0 0 28 28" style="enable-background:new 0 0 28 28;" xml:space="preserve">
<style type="text/css">
	.st0{fill:#2EC866;}
</style>
<g>
	<path class="st0" d="M0,13.3c1.5,1.1,3.1,1.5,4.8,1.8c4,0.8,8.1,1,12.2,0.8c2.4-0.1,4.8-0.4,7.1-1c1.3-0.3,2.6-0.8,3.8-1.6
		c0,0.1,0,0.2,0,0.3c0,1,0,2.1,0,3.1c0,0.6-0.2,1-0.7,1.2c-0.6,0.4-1.3,0.7-2,0.9c-1.6,0.6-3.3,0.9-5,1.1c-2.5,0.3-5.1,0.5-7.6,0.4
		c-3.2-0.1-6.4-0.4-9.5-1.3c-0.7-0.2-1.3-0.5-2-0.8c-0.3-0.1-0.6-0.3-0.8-0.5C0.1,17.4,0,17.1,0,16.7c0-1,0-2.1,0-3.1
		C0,13.5,0,13.4,0,13.3z M1.9,16.2c0-0.2,0-0.5,0-0.7c0-0.3-0.2-0.5-0.5-0.5C1.2,15,1,15.2,1,15.5c0,0.5,0,0.9,0,1.4
		c0,0.3,0.2,0.5,0.5,0.5c0.3,0,0.5-0.2,0.5-0.5C1.9,16.7,1.9,16.4,1.9,16.2z M27,16.2c0-0.2,0-0.5,0-0.7c0-0.3-0.2-0.5-0.5-0.5
		c-0.3,0-0.5,0.2-0.5,0.5c0,0.5,0,0.9,0,1.4c0,0.3,0.2,0.5,0.5,0.5c0.3,0,0.5-0.2,0.5-0.5C27,16.7,27,16.4,27,16.2z M4.4,17.2
		c0,0.2,0,0.5,0,0.7c0,0.3,0.2,0.5,0.5,0.5c0.3,0,0.5-0.2,0.5-0.5c0-0.5,0-1,0-1.4c0-0.3-0.2-0.5-0.5-0.5c-0.3,0-0.5,0.2-0.5,0.5
		C4.3,16.7,4.4,16.9,4.4,17.2z M22.7,17.2c0,0.2,0,0.5,0,0.7c0,0.3,0.2,0.5,0.5,0.5c0.3,0,0.5-0.2,0.5-0.5c0-0.5,0-1,0-1.4
		c0-0.3-0.2-0.5-0.5-0.5c-0.3,0-0.5,0.2-0.5,0.5C22.7,16.7,22.7,16.9,22.7,17.2z M9.7,18.1c0-0.2,0-0.5,0-0.7c0-0.3-0.2-0.5-0.5-0.5
		c-0.3,0-0.5,0.2-0.5,0.5c0,0.5,0,1,0,1.4c0,0.3,0.2,0.5,0.5,0.5c0.3,0,0.5-0.2,0.5-0.5C9.7,18.6,9.7,18.4,9.7,18.1z M19.3,18.1
		C19.3,18.1,19.3,18.1,19.3,18.1c0-0.2,0-0.4,0-0.7c0,0,0,0,0-0.1c0-0.3-0.2-0.5-0.5-0.5c-0.3,0-0.5,0.2-0.5,0.5c0,0.5,0,0.9,0,1.4
		c0,0.3,0.2,0.5,0.5,0.5c0.3,0,0.5-0.2,0.5-0.5C19.3,18.6,19.3,18.4,19.3,18.1z M13.5,18.4c0,0.2,0,0.5,0,0.7c0,0.3,0.2,0.5,0.5,0.5
		c0.3,0,0.5-0.2,0.5-0.5c0-0.5,0-0.9,0-1.4c0-0.3-0.2-0.5-0.5-0.5c-0.3,0-0.5,0.2-0.5,0.5C13.5,17.9,13.5,18.1,13.5,18.4z"/>
	<path class="st0" d="M20.9,13c0.7-0.7,1.3-1.3,1.9-1.9c0.1-0.1,0.2-0.2,0.2-0.3c0.1-0.2,0-0.4-0.2-0.6c-0.2-0.2-0.4-0.1-0.6,0
		c-0.3,0.3-0.5,0.5-0.8,0.8c-0.5,0.5-1.1,1.1-1.6,1.6c-0.1,0.1-0.2,0.1-0.3,0.1c-1.7-0.1-3.4-0.2-5.1-0.4c0-0.1,0-0.2,0-0.3
		c0-0.8,0-1.6,0-2.4c0-0.4-0.2-0.6-0.5-0.6c-0.3,0-0.5,0.2-0.5,0.6c0,0.9,0,1.8,0,2.8c-0.5,0-1,0-1.6,0c-1.1,0.1-2.2,0.2-3.4,0.3
		c-0.2,0-0.4,0-0.6-0.2c-0.7-0.8-1.5-1.5-2.2-2.2c-0.1-0.1-0.3-0.2-0.5-0.2c-0.1,0-0.3,0.2-0.4,0.3c-0.1,0.2,0,0.4,0.1,0.5
		c0.6,0.6,1.2,1.2,1.8,1.8C6.9,12.9,6.9,13,7,13c-0.8,0.2-1.6,0.3-2.3,0.4c-0.1,0-0.2,0-0.4,0.1c-0.6,0.3-1.2,0.2-1.7-0.1
		c-0.6-0.3-1.3-0.5-1.9-0.9c-1-0.6-0.9-1.2,0-1.9c0.8-0.6,1.8-0.9,2.8-1.2c2-0.6,4.1-0.9,6.1-1c2.3-0.2,4.7-0.2,7-0.1
		c2.9,0.2,5.8,0.5,8.5,1.4c0.7,0.2,1.4,0.6,2.1,1c1,0.6,1,1.3,0,2c-0.8,0.5-1.6,0.8-2.5,1.1c-0.1,0-0.3,0-0.4,0
		c-1-0.2-2.1-0.4-3.1-0.6C21.1,13.1,21.1,13.1,20.9,13z"/>
	<path class="st0" d="M0,18.6c2.2,1.4,4.6,1.8,7.1,2.2c3.5,0.5,7.1,0.6,10.6,0.3c2.6-0.2,5.2-0.5,7.7-1.3c0.9-0.3,1.7-0.7,2.5-1.2
		c0,0,0,0,0,0c0,1,0,2.1,0,3.1c0,0.4-0.3,0.6-0.5,0.8c-0.6,0.5-1.3,0.8-2.1,1c-1.7,0.6-3.5,0.9-5.3,1.1c-1,0.1-2.1,0.2-3.2,0.3
		c0-0.1,0-0.2,0-0.3c0-0.5,0-1,0-1.5c0-0.3-0.2-0.5-0.5-0.5c-1.6,0-3.2,0-4.7,0c-0.4,0-0.5,0.2-0.5,0.5c0,0.6,0,1.2,0,1.8
		c-0.5,0-1.1-0.1-1.6-0.1c-1.9-0.2-3.9-0.4-5.7-1c-0.9-0.3-1.8-0.6-2.6-1c-0.3-0.1-0.5-0.3-0.7-0.5c-0.3-0.3-0.5-0.6-0.5-1
		C0,20.5,0,19.6,0,18.6z"/>
	<path class="st0" d="M16.9,6.3c0,0.4,0,0.7,0,1c-0.3,0-0.6,0-1,0c0-0.3,0-0.7,0-1c-1.3,0-2.6,0-3.8,0c0,0.3,0,0.6,0,1
		c-0.3,0-0.6,0-1,0c0-0.3,0-0.6,0-1c-0.2,0-0.3,0-0.4,0c-0.4,0-0.6-0.2-0.6-0.6c0-0.6,0-1.2,0-1.8c0-0.4,0.2-0.6,0.6-0.6
		c0.9,0,1.8,0,2.7,0c1.3,0,2.6,0,3.9,0c0.5,0,0.6,0.2,0.6,0.6c0,0.5,0,1,0,1.6c0,0.6-0.1,0.7-0.7,0.7C17.1,6.3,17,6.3,16.9,6.3z"/>
	<path class="st0" d="M24.1,6.3c0,0.7,0,1.4,0,2.1c-0.3-0.1-0.6-0.1-0.8-0.2c-0.1,0-0.1-0.1-0.1-0.2c0-1.5,0-3,0-4.5
		c0-0.1,0.1-0.4,0.3-0.4c0.1-0.1,0.4,0,0.5,0c1.1,0.8,2.2,1.6,3.3,2.4c0.2,0.1,0.3,0.3,0.2,0.6c-0.1,0.3-0.3,0.4-0.5,0.4
		C26,6.3,25.1,6.3,24.1,6.3z"/>
	<path class="st0" d="M3.9,8.4c0-0.7,0-1.3,0-2.1c-0.1,0-0.2,0-0.3,0c-0.8,0-1.6,0-2.4,0C0.8,6.3,0.6,6.3,0.5,6
		C0.4,5.7,0.6,5.5,0.8,5.4c1-0.7,2.1-1.5,3.1-2.2C4.1,3,4.3,2.9,4.6,3c0.2,0.1,0.3,0.3,0.3,0.6c0,1.4,0,2.9,0,4.3
		c0,0.2-0.1,0.3-0.2,0.3C4.4,8.2,4.1,8.3,3.9,8.4z"/>
</g>
</svg>
