<?xml version="1.0" encoding="utf-8"?>
<!-- Generator: Adobe Illustrator 26.0.1, SVG Export Plug-In . SVG Version: 6.00 Build 0)  -->
<svg version="1.1" id="Capa_1" xmlns="http://www.w3.org/2000/svg" xmlns:xlink="http://www.w3.org/1999/xlink" x="0px" y="0px"
	 viewBox="0 0 28 28" style="enable-background:new 0 0 28 28;" xml:space="preserve">
<style type="text/css">
	.st0{fill:#2EC866;}
</style>
<g>
	<path class="st0" d="M14.3,0c0.1,0,0.2,0,0.2,0c0.3,0,0.7,0,1,0.1c1.2,0.1,2.3,0.4,3.4,0.8c3.4,1.3,6,3.6,7.6,6.9
		c0.6,1.1,1,2.3,1.2,3.5c0.1,0.6,0.2,1.2,0.2,1.8c0,0.5,0,1.1,0,1.6c-0.1,1.6-0.4,3.1-1,4.6c-0.8,2-2,3.7-3.6,5.1
		c-1.7,1.6-3.7,2.6-6,3.2c-0.5,0.1-1.1,0.2-1.6,0.3c-0.3,0-0.7,0.1-1.2,0.1c-0.4,0-0.9,0-1.3,0c-1-0.1-2-0.2-3-0.5
		c-3.6-1.1-6.4-3.3-8.3-6.6c-0.8-1.3-1.3-2.8-1.6-4.3c-0.1-0.7-0.2-1.4-0.2-2c0-0.1,0-0.2-0.1-0.3c0-0.2,0-0.3,0-0.5
		c0-0.1,0-0.2,0.1-0.3c0-0.3,0-0.6,0.1-0.9c0-0.6,0.1-1.2,0.3-1.7C1.2,7.7,2.8,5,5.4,3c1.5-1.2,3.2-2,5-2.5c0.7-0.2,1.4-0.3,2.1-0.4
		c0.3,0,0.7,0,1-0.1c0.1,0,0.1,0,0.2,0C13.9,0,14.1,0,14.3,0z M27.4,14c0-7.4-6-13.4-13.4-13.4C6.6,0.6,0.7,6.7,0.6,14
		c0,7.3,5.9,13.4,13.4,13.4C21.4,27.4,27.4,21.4,27.4,14z"/>
	<path class="st0" d="M20,21.2c-1.4-4.3-2.9-8.5-4.3-12.8h0.1c0.4,0,0.8-0.1,1.1-0.1c0.1,0,0.1,0,0.2,0c0.3-0.1,0.4-0.3,0.4-0.6
		c0-0.2-0.2-0.4-0.5-0.4c-0.4,0-0.7,0.1-1.1,0.1c-0.5,0-1,0.1-1.5,0.1c-0.4,0-0.9,0-1.3,0c-0.3,0-0.5,0-0.8,0
		c-0.4,0-0.9-0.1-1.3-0.1c-0.2,0-0.3,0-0.5,0s-0.4,0.2-0.4,0.5c0,0.3,0.2,0.5,0.4,0.5c0.4,0,0.8,0.1,1.2,0.1c0.1,0,0.1,0.1,0.1,0.1
		c0.2,0.5,0.4,1,0.5,1.5c0.4,1.1,0.8,2.2,1.2,3.4c0,0.1,0,0.2,0,0.3c-0.8,2.5-1.7,5-2.5,7.6v0.1c-0.5-1.5-1-2.9-1.5-4.3
		s-1-2.9-1.4-4.3c-0.5-1.4-1-2.9-1.4-4.3h0.1c0.3,0,0.6,0,0.8-0.1c0.2,0,0.3,0,0.5-0.1c0.3,0,0.5-0.3,0.4-0.6c0-0.3-0.3-0.5-0.6-0.5
		c-0.4,0-0.7,0.1-1.1,0.1c-0.5,0-1,0.1-1.5,0.1c-0.4,0-0.8,0-1.2,0H4c3.8-6,12.6-7.2,18-2.3c-0.1,0-0.2,0-0.2,0
		c-0.5,0-1,0.3-1.3,0.7c-0.4,0.5-0.6,1-0.6,1.6c0,0.4,0.1,0.8,0.3,1.2c0.2,0.5,0.5,0.9,0.8,1.4c0.3,0.6,0.6,1.1,0.8,1.8
		C22,12.5,22,13,22,13.6c0,0.5-0.1,1-0.2,1.4c-0.2,0.7-0.4,1.5-0.6,2.2c-0.4,1.3-0.8,2.6-1.2,3.9C20.1,21.1,20,21.1,20,21.2L20,21.2
		z"/>
	<path class="st0" d="M18,25.3c-2.4,0.8-4.8,0.9-7.3,0.2c0-0.1,3.3-9.9,3.6-10.4c0.6,1.7,1.2,3.4,1.9,5.1
		C16.7,21.9,17.3,23.6,18,25.3z"/>
	<path class="st0" d="M3.1,9.2C5,14.4,6.8,19.6,8.7,24.7c-0.3,0-1.8-1-2.5-1.7c-0.8-0.7-1.5-1.4-2-2.3c-0.6-0.8-1-1.7-1.4-2.7
		s-0.6-1.9-0.7-3C2,14,2,13,2.2,11.9C2.3,11.1,2.6,10.1,3.1,9.2z"/>
	<path class="st0" d="M24.6,8.4c2.9,5.3,1.2,12.6-4.5,16c0-0.1,0-0.1,0.1-0.2c0.5-1.4,1-2.9,1.5-4.3c0.7-2,1.4-4,2.1-6
		c0.1-0.4,0.3-0.8,0.4-1.3c0.2-0.6,0.3-1.3,0.4-1.9c0.1-0.6,0.1-1.2,0.1-1.9C24.6,8.7,24.6,8.5,24.6,8.4z"/>
</g>
</svg>
